<svg xmlns="http://www.w3.org/2000/svg" viewBox="0 0 44000 26994"><path fill="none" stroke-width="398" stroke-linecap="round" stroke-linejoin="round" stroke="white" d="M42791 334c1,-81 -71,-145 -153,-134 -2419,380 -3819,2455 -3808,4839 9,1899 -299,9811 208,11159 214,561 553,1019 1386,1317 0,2269 -538,4461 -539,6645 0,1968 2798,3033 2801,2351l105 -26177zm-38109 -57l0 7777m-2080 -7777l0 7777m-2403 -7669l0 6265c0,955 131,1568 339,1986 422,832 1024,765 1446,1284 169,208 295,534 295,1156l-567 14046c-44,1081 931,1673 1930,1673 1000,0 1977,-553 1931,-1673l-567 -13938c0,-622 126,-948 295,-1156 421,-519 1023,-452 1446,-1284 208,-418 339,-1031 339,-1986l0 -6373"/><circle fill="none" stroke-width="398" stroke="white" cx="22205" cy="13536" r="13259"/><circle fill="white" cx="22205" cy="13536" r="12199"/></svg>
