<svg viewBox="0 0 78 299" xmlns="http://www.w3.org/2000/svg"><path fill="red" d="M 1.5 1.20778C 1.5 0.379353 0.828427 -0.29222 0 -0.29222C -0.828427 -0.29222 -1.5 0.379353 -1.5 1.20778L 1.5 1.20778ZM 23.2571 120.778L 24.7559 120.838C 24.7567 120.818 24.7571 120.798 24.7571 120.778L 23.2571 120.778ZM 16.9143 277.789L 15.4155 277.729C 15.4147 277.749 15.4143 277.769 15.4143 277.789L 16.9143 277.789ZM 75.5 0C 75.5 -0.828427 74.8284 -1.5 74 -1.5C 73.1716 -1.5 72.5 -0.828427 72.5 0L 75.5 0ZM 50.7429 121.986L 49.2429 121.986C 49.2429 122.006 49.2433 122.026 49.2441 122.047L 50.7429 121.986ZM 57.0857 277.789L 58.5857 277.789C 58.5857 277.769 58.5853 277.748 58.5845 277.728L 57.0857 277.789ZM 23.8714 86.9601C 23.8714 87.7885 24.543 88.4601 25.3714 88.4601C 26.1999 88.4601 26.8714 87.7885 26.8714 86.9601L 23.8714 86.9601ZM 26.8714 0C 26.8714 -0.828427 26.1999 -1.5 25.3714 -1.5C 24.543 -1.5 23.8714 -0.828427 23.8714 0L 26.8714 0ZM 47.1286 86.9601C 47.1286 87.7885 47.8001 88.4601 48.6286 88.4601C 49.457 88.4601 50.1286 87.7885 50.1286 86.9601L 47.1286 86.9601ZM 50.1286 0C 50.1286 -0.828427 49.457 -1.5 48.6286 -1.5C 47.8001 -1.5 47.1286 -0.828427 47.1286 0L 50.1286 0ZM -1.5 1.20778L -1.5 71.259L 1.5 71.259L 1.5 1.20778L -1.5 1.20778ZM -1.5 71.259C -1.5 81.9406 -0.0348933 88.7875 2.29104 93.4611C 4.66207 98.1342 7.88339 100.595 10.8538 102.389C 13.9481 104.256 16.4943 105.4 18.4587 107.819C 20.3434 110.141 21.7571 113.795 21.7571 120.778L 24.7571 120.778C 24.7571 113.406 23.2637 108.978 20.7877 105.928C 18.3914 102.977 15.1233 101.461 12.4033 99.8204C 9.55947 98.1072 6.9665 96.2134 4.97681 92.1244C 2.94204 88.0359 1.5 81.7135 1.5 71.259L -1.5 71.259ZM 21.7584 120.717L 15.4155 277.729L 18.4131 277.85L 24.7559 120.838L 21.7584 120.717ZM 72.5 0L 72.5 72.4667L 75.5 72.4667L 75.5 0L 72.5 0ZM 72.5 72.4667C 72.5 82.9212 71.058 89.2437 69.0232 93.3322C 67.0335 97.4212 64.4405 99.315 61.5967 101.028C 58.8767 102.669 55.6086 104.184 53.2123 107.136C 50.7363 110.186 49.2429 114.614 49.2429 121.986L 52.2429 121.986C 52.2429 115.003 53.6566 111.348 55.5413 109.027C 57.5057 106.607 60.0519 105.463 63.1462 103.597C 66.1166 101.803 69.3379 99.342 71.709 94.6689C 74.0349 89.9953 75.5 83.1484 75.5 72.4667L 72.5 72.4667ZM 49.2441 122.047L 55.587 277.85L 58.5845 277.728L 52.2416 121.925L 49.2441 122.047ZM 55.5857 277.789C 55.5857 283.031 53.3155 286.903 49.9 289.504C 46.4429 292.137 41.7586 293.5 37 293.5C 32.2414 293.5 27.5571 292.137 24.1 289.504C 20.6845 286.903 18.4143 283.031 18.4143 277.789L 15.4143 277.789C 15.4143 284.021 18.1655 288.755 22.2822 291.891C 26.3572 294.994 31.7157 296.5 37 296.5C 42.2843 296.5 47.6428 294.994 51.7178 291.891C 55.8345 288.755 58.5857 284.021 58.5857 277.789L 55.5857 277.789ZM 26.8714 86.9601L 26.8714 0L 23.8714 0L 23.8714 86.9601L 26.8714 86.9601ZM 50.1286 86.9601L 50.1286 0L 47.1286 0L 47.1286 86.9601L 50.1286 86.9601Z"/>
</svg>
