<svg xmlns="http://www.w3.org/2000/svg" viewBox="0 0 1857 1857"><style>.a{stop-color:#5C6CB3;}.b{stop-color:#FFD776;}.c{stop-color:#F3A554;}.d{stop-color:#F15C3C;}.e{stop-color:#D94867;}.f{stop-color:#C32F87;}.g{stop-color:#7D63A7;}</style><defs><style type="text/css">  
    .fil2 {fill:url(#id0)}
    .fil1 {fill:url(#id1)}
    .fil0 {fill:url(#id2)}
   </style><radialGradient id="id0" gradientUnits="userSpaceOnUse" gradientTransform="matrix(2 -0 -0 1.99998 -1375 -537)" cx="1375" cy="537" r="111" fx="1375" fy="537.354"><stop offset="0" stop-color="#5F6DB3"/><stop offset="1" class="a"/></radialGradient><radialGradient id="id1" gradientUnits="userSpaceOnUse" gradientTransform="matrix(2.01504 -0 -0 2.01504 -738 -1417)" cx="728" cy="1396" r="477" fx="727.547" fy="1396.46"><stop offset="0" class="b"/><stop offset="0.25098" class="c"/><stop offset="0.380392" class="d"/><stop offset="0.611765" class="e"/><stop offset="0.839216" class="f"/><stop offset="0.960784" class="g"/><stop offset="1" class="a"/></radialGradient><radialGradient id="id2" gradientUnits="userSpaceOnUse" gradientTransform="matrix(2.017 -0 -0 2.017 -548 -1870)" cx="539" cy="1839" r="929" fx="538.661" fy="1838.88"><stop offset="0" class="b"/><stop offset="0.25098" class="c"/><stop offset="0.380392" class="d"/><stop offset="0.541176" class="e"/><stop offset="0.701961" class="f"/><stop offset="0.909804" class="g"/><stop offset="0.980392" class="a"/><stop offset="1" class="a"/></radialGradient></defs><g id="Слой_x0020_1"><metadata id="CorelCorpID_0Corel-Layer"/><g id="_2423914685904"><path id="XMLID_142_" class="fil0" d="M1809 320c-24-61-56-113-107-164-52-52-104-84-165-107-59-23-127-39-225-43-99-5-131-6-383-6-253 0-284 1-384 6-99 4-166 20-225 43-61 23-113 55-164 107-52 51-84 103-107 164-23 59-39 127-43 225-5 100-6 131-6 384 0 252 1 284 6 383 4 99 20 166 43 225 23 61 55 113 107 165 51 51 103 83 164 107 59 23 127 38 225 43 100 4 131 5 384 5 252 0 284 0 383-5 99-5 166-20 225-43 61-24 113-56 165-107 51-52 83-104 107-165 23-59 38-127 43-225 4-99 5-131 5-383 0-253 0-284-5-384-5-99-20-166-43-225zm-125 984c-4 91-19 140-32 172-16 43-37 75-69 107-33 33-64 53-107 70-33 13-82 28-173 32-98 5-127 6-375 6-248 0-278-1-375-6-91-4-140-19-173-32-43-17-74-37-107-70-32-32-52-63-69-107-13-33-28-81-32-172-5-98-6-128-6-375 0-248 1-278 6-376 4-90 19-140 32-172 16-43 37-75 69-107 33-32 64-52 107-69 33-13 82-28 173-33 98-4 127-5 375-5 248 0 278 0 375 5 91 5 140 20 173 33 43 16 74 37 107 69 32 32 52 63 69 107 13 33 28 82 32 172 5 99 6 128 6 376 0 247-1 277-6 375z"/><path id="XMLID_145_" class="fil1" d="M928 451c-263 0-477 214-477 478 0 263 214 477 477 477 263 0 477-214 477-477 0-264-214-478-477-478zm0 788c-171 0-310-139-310-310 0-171 138-310 310-310 172 0 310 138 310 310 0 171-139 310-310 310z"/><circle id="XMLID_143_" class="fil2" cx="1424" cy="433" r="111"/></g></g></svg>