<svg width="45" height="295" viewBox="0 0 45 295" version="1.1" xmlns="http://www.w3.org/2000/svg" xmlns:xlink="http://www.w3.org/1999/xlink" xmlns:figma="http://www.figma.com/figma/ns">
<path fill="red" d="M 41 1.07317e-14L 42.5 0.00605039C 42.5017 -0.427778 42.3156 -0.841117 41.9895 -1.12731C 41.6635 -1.4135 41.2295 -1.54452 40.7996 -1.48655L 41 1.07317e-14ZM 39.8272 290.763L 40.2562 292.2C 40.8895 292.011 41.3245 291.43 41.3272 290.769L 39.8272 290.763ZM 17.7024 189.799L 19.2024 189.799C 19.2024 189.166 18.8041 188.6 18.2073 188.387L 17.7024 189.799ZM 0.000824052 157.624L -1.49918 157.624L 0.000824052 157.624ZM 0.000824052 52.2604L -1.49916 52.2672L 0.000824052 52.2604ZM 39.5 -0.00605039L 38.3272 290.757L 41.3272 290.769L 42.5 0.00605039L 39.5 -0.00605039ZM 39.3981 289.325C 38.2797 289.659 36.0988 289.549 33.2529 288.695C 30.4287 287.85 27.3249 286.41 24.31 284.287C 18.3106 280.078 13.2159 273.494 13.2159 264.65L 10.2159 264.65C 10.2159 274.781 16.0793 282.177 22.5869 286.743C 25.8254 289.008 29.3622 290.654 32.3897 291.568C 35.3955 292.471 38.2772 292.791 40.2562 292.2L 39.3981 289.325ZM 13.2159 264.65C 13.2124 254.766 14.7002 243.91 16.1982 231.566C 17.6959 219.224 19.2002 205.414 19.2024 189.799L 16.2024 189.799C 16.2046 205.251 14.7156 218.881 13.2201 231.205C 11.7249 243.526 10.2194 254.563 10.2159 264.65L 13.2159 264.65ZM 18.2073 188.387C 9.75806 185.367 5.66806 180.53 3.61587 175.145C 1.4764 169.601 1.50064 163.411 1.50082 157.624L -1.49918 157.624C -1.49936 163.411 -1.47399 170.145 0.81258 176.214C 3.18644 182.442 7.94742 187.906 17.1976 191.212L 18.2073 188.387ZM 1.50082 157.624C 1.50206 117.691 1.71398 98.969 1.50081 52.2535L -1.49916 52.2672C -1.28601 98.9589 -1.4979 117.674 -1.49918 157.624L 1.50082 157.624ZM 1.50081 52.2535C 1.39666 29.4348 11.3724 16.8134 21.2834 9.84329C 26.284 6.31573 31.2248 4.2552 35.0262 3.02497C 36.9062 2.41491 38.4421 2.03433 39.5461 1.79622C 40.0885 1.67897 40.5004 1.60231 40.7924 1.55194C 40.9338 1.52749 41.0355 1.51131 41.1088 1.50008C 41.1433 1.4948 41.1661 1.49145 41.1837 1.48893C 41.1914 1.48782 41.1955 1.48723 41.1994 1.48669C 41.2008 1.48649 41.2011 1.48646 41.2018 1.48636C 41.2019 1.48635 41.2015 1.4864 41.2016 1.48639C 41.2011 1.48646 41.2004 1.48655 41 1.07317e-14C 40.7996 -1.48655 40.7986 -1.48642 40.7975 -1.48627C 40.7969 -1.48619 40.7956 -1.48601 40.7944 -1.48585C 40.7926 -1.4856 40.7891 -1.48512 40.7855 -1.48462C 40.7795 -1.48377 40.7687 -1.48226 40.7566 -1.48052C 40.7345 -1.47734 40.6982 -1.47201 40.6547 -1.46535C 40.5722 -1.4527 40.4424 -1.43198 40.282 -1.40433C 39.9704 -1.35049 39.4971 -1.26216 38.9131 -1.13624C 37.7641 -0.888041 36.0819 -0.469626 34.1016 0.171013C 30.1823 1.44216 24.8334 3.6898 19.5576 7.38938C 8.91566 14.8736 -1.60817 28.3824 -1.49916 52.2672L 1.50081 52.2535Z"/>
</svg>
