<svg xmlns="http://www.w3.org/2000/svg" viewBox="0 0 672 543"><path fill="none" stroke="white" stroke-width="34" d="M98 17l476 0m80 78l0 414-89-68-467 0m-81-81c0-87 0-175 0-262m637 0c0-44-36-81-80-81m-476 0c-44 0-81 37-81 81m0 262c0 44 37 81 81 81m42-257c25 0 45 20 45 45 0 25-20 45-45 45-25 0-45-20-45-45 0-25 20-45 45-45zm196 0c25 0 45 20 45 45 0 25-20 45-45 45-25 0-45-20-45-45 0-25 20-45 45-45zm-196 0c25 0 45 20 45 45 0 25-20 45-45 45-25 0-45-20-45-45 0-25 20-45 45-45zm392 0c-25 0-45 20-45 45 0 25 20 45 45 45 25 0 45-20 45-45 0-25-20-45-45-45z"/></svg>