<svg xmlns="http://www.w3.org/2000/svg" viewBox="0 0 3753 2868"><path fill="black" fill-rule="evenodd" d="M3424 2868l-3095 0c-180,0 -329,-149 -329,-329l0 -2210c0,-180 149,-329 329,-329l3095 0c180,0 329,149 329,329l0 2210c0,180 -149,329 -329,329l0 0zm97 -2581l-1335 1335c-172,172 -462,172 -635,0l-1336 -1329c12,-48 53,-81 106,-81l0 0 3095 0c51,0 91,30 105,75zm-3309 301l838 838 -838 839 0 -1677zm3 1971l984 -984 204 204c125,125 290,196 462,196 172,0 337,-71 462,-196l204 -204 990 990c-14,45 -54,76 -105,76l-3095 0c-53,0 -94,-34 -106,-82zm3311 -287l-846 -846 846 -846 0 1692z"/></svg>