<svg xmlns="http://www.w3.org/2000/svg" viewBox="0 -.5 32 32"><path fill="white" d="M0 28.5L-0.456796 28.2967 -0.769836 29 0 29 0 28.5ZM31 28.5L31 29 31.8298 29 31.4421 28.2664 31 28.5ZM10.6126 25.0714L10.1279 24.9486 9.9701 25.5714 10.6126 25.5714 10.6126 25.0714ZM20.1087 25.0714L20.1087 25.5714 20.8339 25.5714 20.5761 24.8937 20.1087 25.0714ZM25.7529 11.0204C25.7529 16.8243 20.9816 21.5408 15.0817 21.5408L15.0817 22.5408C21.5211 22.5408 26.7529 17.3893 26.7529 11.0204L25.7529 11.0204ZM15.0817 21.5408C9.18174 21.5408 4.41053 16.8243 4.41053 11.0204L3.41053 11.0204C3.41053 17.3893 8.64231 22.5408 15.0817 22.5408L15.0817 21.5408ZM4.41053 11.0204C4.41053 5.21653 9.18174 0.5 15.0817 0.5L15.0817-0.5C8.64231-0.5 3.41053 4.65148 3.41053 11.0204L4.41053 11.0204ZM15.0817 0.5C20.9816 0.5 25.7529 5.21653 25.7529 11.0204L26.7529 11.0204C26.7529 4.65148 21.5211-0.5 15.0817-0.5L15.0817 0.5ZM19.6087 11.0204C19.6087 13.4768 17.5883 15.4796 15.0817 15.4796L15.0817 16.4796C18.1278 16.4796 20.6087 14.0418 20.6087 11.0204L19.6087 11.0204ZM15.0817 15.4796C12.5751 15.4796 10.5547 13.4768 10.5547 11.0204L9.55467 11.0204C9.55467 14.0418 12.0356 16.4796 15.0817 16.4796L15.0817 15.4796ZM10.5547 11.0204C10.5547 8.56405 12.5751 6.56122 15.0817 6.56122L15.0817 5.56122C12.0356 5.56122 9.55467 7.999 9.55467 11.0204L10.5547 11.0204ZM15.0817 6.56122C17.5883 6.56122 19.6087 8.56405 19.6087 11.0204L20.6087 11.0204C20.6087 7.999 18.1278 5.56122 15.0817 5.56122L15.0817 6.56122ZM4.01229 18.2559L-0.456796 28.2967 0.456796 28.7033 4.92588 18.6625 4.01229 18.2559ZM0 29L31 29 31 28 0 28 0 29ZM31.4421 28.2664L26.1358 18.2256 25.2516 18.6928 30.5579 28.7336 31.4421 28.2664ZM10.6865 22.7445L10.1279 24.9486 11.0973 25.1943 11.6558 22.9902 10.6865 22.7445ZM10.6126 25.5714L20.1087 25.5714 20.1087 24.5714 10.6126 24.5714 10.6126 25.5714ZM20.5761 24.8937L19.7376 22.6896 18.8029 23.0451 19.6414 25.2492 20.5761 24.8937Z"/></svg>
