<svg viewBox="0 0 148 148" xmlns="http://www.w3.org/2000/svg"><path fill="#E0E0E0" fill-rule="evenodd" d="M 61.8514 37.0598L 77.0379 37.0598C 84.1464 37.0598 90.6064 39.9655 95.2908 44.65C 99.9721 49.3312 102.878 55.7912 102.878 62.8997C 102.878 70.0082 99.9721 76.4681 95.2908 81.1494C 90.6064 85.8338 84.1464 88.7396 77.0379 88.7396L 63.4254 88.7396L 63.4254 105.963L 80.0035 105.963C 80.8724 105.963 81.5776 106.671 81.5776 107.54C 81.5776 108.409 80.8724 109.114 80.0035 109.114L 63.4254 109.114L 63.4254 123.841C 63.4254 124.71 62.7202 125.415 61.8514 125.415C 60.9825 125.415 60.2741 124.71 60.2741 123.841L 60.2741 109.114L 49.0699 109.114C 48.1979 109.114 47.4927 108.409 47.4927 107.54C 47.4927 106.671 48.1979 105.963 49.0699 105.963L 60.2741 105.963L 60.2741 87.1655L 60.2741 40.1954L 49.1172 40.1954C 48.2451 40.1954 47.5399 39.4965 47.5399 38.6339C 47.5399 37.7744 48.2451 37.0756 49.1172 37.0756L 61.631 37.0756C 61.7034 37.0661 61.7758 37.0598 61.8514 37.0598ZM 133.201 105.982C 133.371 105.135 134.195 104.584 135.045 104.751C 135.895 104.921 136.446 105.749 136.276 106.599L 135.886 108.516C 138.124 104.512 139.988 100.274 141.42 95.8449C 143.646 88.9725 144.852 81.6311 144.852 74C 144.852 54.4375 136.919 36.723 124.099 23.9006C 111.277 11.0814 93.5656 3.15128 74 3.15128C 71.6861 3.15128 69.4352 3.25517 67.2536 3.46295C 65.0215 3.67387 62.7958 3.99498 60.5921 4.41683C 59.7421 4.58053 58.9173 4.02017 58.7536 3.16702C 58.5899 2.31388 59.1503 1.48907 60.0034 1.32851C 62.2638 0.89407 64.5871 0.560368 66.9576 0.33685C 69.3156 0.113333 71.6641 0 74 0C 94.4345 0 112.936 8.28274 126.325 21.6749C 139.717 35.0639 148 53.5655 148 74C 148 81.949 146.741 89.6147 144.411 96.8051C 142.853 101.619 140.816 106.218 138.354 110.54L 141.612 108.245C 142.324 107.748 143.306 107.918 143.804 108.626C 144.304 109.338 144.134 110.32 143.423 110.817L 133.613 117.721L 133.575 117.75L 133.56 117.759C 133.027 118.124 132.3 118.137 131.749 117.737C 131.202 117.34 130.987 116.654 131.157 116.04L 133.201 105.982ZM 10.987 35.1867L 9.46643 36.1941C 8.74236 36.6726 7.76644 36.4743 7.28793 35.7533C 6.80941 35.0293 7.00774 34.0533 7.73181 33.5748L 16.0523 28.0656C 16.6064 27.6532 17.3934 27.6438 17.9632 28.0908C 18.4669 28.4875 18.6621 29.1328 18.5142 29.7184L 16.811 38.9172C 16.6568 39.7704 15.8383 40.3339 14.9851 40.1765C 14.132 40.0222 13.5653 39.2037 13.7227 38.3505L 14.1446 36.0713C 11.2388 40.6424 8.84625 45.5629 7.04552 50.7542L 7.00774 50.877C 4.50813 58.1208 3.15128 65.903 3.15128 74C 3.15128 93.5656 11.0814 111.277 23.9006 124.099C 36.723 136.919 54.4375 144.852 74 144.852C 77.4 144.852 80.7307 144.613 83.9733 144.156C 87.3009 143.687 90.5466 142.988 93.6916 142.082C 94.5258 141.842 95.3947 142.321 95.6371 143.152C 95.8764 143.983 95.3979 144.855 94.5667 145.097C 91.2581 146.051 87.8612 146.785 84.4046 147.27C 80.992 147.751 77.5165 148 74 148C 53.5655 148 35.0639 139.717 21.6749 126.325C 8.28274 112.936 0 94.4345 0 74C 0 65.5473 1.41981 57.4251 4.02961 49.857L 4.08313 49.7185C 5.86497 44.5933 8.18829 39.7263 10.987 35.1867ZM 77.0379 40.2111L 63.4254 40.2111L 63.4254 85.5883L 77.0379 85.5883C 83.2775 85.5883 88.9505 83.0351 93.0619 78.9237C 97.1734 74.8091 99.7297 69.1361 99.7297 62.8997C 99.7297 56.6632 97.1766 50.9903 93.0619 46.8757C 88.9505 42.7642 83.2775 40.2111 77.0379 40.2111Z"/></svg>
