<svg xmlns="http://www.w3.org/2000/svg" viewBox="0 0 9743 9743"><path fill="#5478A4" d="M1501 0l6740 0c829,0 1502,672 1502,1501l0 6740c0,829 -673,1502 -1502,1502l-6740 0c-829,0 -1501,-673 -1501,-1502l0 -6740c0,-829 672,-1501 1501,-1501l0 0z"/><path fill="white" fill-rule="nonzero" d="M7078 4952c0,0 842,-1187 926,-1577 28,-140 -34,-218 -179,-218 0,0 -485,0 -730,0 -167,0 -229,73 -279,179 0,0 -395,841 -875,1371 -154,172 -233,223 -318,223 -69,0 -100,-57 -100,-212l0 -1354c0,-190 -23,-246 -179,-246l-1170 0c-90,0 -145,52 -145,123 0,178 273,219 273,702l0 998c0,201 -11,279 -106,279 -251,0 -848,-864 -1182,-1845 -67,-201 -139,-257 -329,-257l-730 0c-106,0 -184,73 -184,179 0,195 228,1098 1126,2308 602,814 1394,1254 2107,1254 435,0 541,-72 541,-256l0 -625c0,-156 61,-223 151,-223 100,0 277,33 691,441 490,468 524,663 792,663l819 0c84,0 162,-39 162,-178 0,-184 -240,-513 -608,-903 -150,-201 -396,-419 -474,-519 -111,-117 -78,-184 0,-307z"/></svg>